<?xml version="1.0" encoding="UTF-8" standalone="no"?>
<!-- Uploaded to: SVG Repo, www.svgrepo.com, Generator: SVG Repo Mixer Tools -->

<svg
   fill="#000000"
   width="800"
   height="800"
   viewBox="0 0 16 16"
   version="1.1"
   id="svg1"
   xmlns="http://www.w3.org/2000/svg"
   xmlns:svg="http://www.w3.org/2000/svg">
  <defs
     id="defs1" />
  <title
     id="title1">discord</title>
  <path
     d="m 5.3383103,10.224412 c 0.8057324,-0.05279 1.4392268,-0.7193468 1.4392268,-1.5341444 0,-0.027195 -5.333e-4,-0.054391 -0.00213,-0.081586 v 0.00373 c 0.0016,-0.025596 0.00267,-0.055457 0.00267,-0.085852 0,-0.8131978 -0.6345609,-1.4776204 -1.4354941,-1.5261457 h -0.00427 c -0.8046686,0.043728 -1.440296,0.7065509 -1.440296,1.518149 0,0.033061 0.00107,0.065589 0.0032,0.098117 v -0.00427 c -0.0016,0.026662 -0.00267,0.058124 -0.00267,0.089585 0,0.8121313 0.6350942,1.4760211 1.4360274,1.5218801 h 0.00427 z m 5.3143147,0 c 0.805732,-0.05279 1.439226,-0.7193468 1.439226,-1.5341444 0,-0.027195 -5.33e-4,-0.054391 -0.0021,-0.081586 v 0.00373 c 0.0016,-0.025596 0.0027,-0.055457 0.0027,-0.085852 0,-0.8131978 -0.634561,-1.4776204 -1.435494,-1.5261457 h -0.0043 c -0.8046663,0.043726 -1.4402937,0.7065489 -1.4402937,1.518147 0,0.033061 0.00107,0.065589 0.0032,0.098117 v -0.00427 c -0.0016,0.025596 -0.00267,0.055458 -0.00267,0.085852 0,0.8131978 0.6345609,1.4776211 1.4354947,1.5261461 z M 2.458257,2.9200293 C 3.3983669,2.4763699 4.4904516,2.1254951 5.6337277,1.9223289 l 0.079453,-0.011731 c 0.00267,-5.333e-4 0.00587,-0.00107 0.00907,-0.00107 0.018663,0 0.034661,0.010132 0.043193,0.025062 v 0 C 5.8902229,2.153757 6.025667,2.4273114 6.14778,2.707798 l 0.02293,0.05919 C 6.7199518,2.679003 7.3534462,2.6288777 7.998672,2.6288777 c 0.6452258,0 1.2787202,0.050125 1.8967505,0.1466422 l -0.068789,-0.00907 C 9.9706049,2.4305109 10.108182,2.1574897 10.260157,1.8930005 l -0.02186,0.04106 c 0.0091,-0.015464 0.0256,-0.025062 0.04426,-0.025062 0.0027,0 0.0059,0 0.0085,5.333e-4 h -5.33e-4 c 1.222757,0.2148975 2.315375,0.5652391 3.336005,1.0435594 l -0.08052,-0.034128 c 0.0091,0.00373 0.01653,0.010132 0.02133,0.01813 v 0 C 15.089218,5.091934 16,7.7730872 16,10.667005 c 0,0.483653 -0.0256,0.960907 -0.07519,1.431228 l 0.0048,-0.05866 c -0.0016,0.01546 -0.0096,0.02826 -0.0208,0.03733 v 0 c -1.141143,0.853724 -2.467855,1.541609 -3.899617,1.993267 l -0.09385,0.0256 c -0.0043,0.0016 -0.0096,0.0021 -0.01493,0.0021 -0.01706,0 -0.03199,-0.008 -0.04106,-0.02026 v 0 C 11.574071,13.693701 11.30265,13.258573 11.067489,12.802115 l -0.02506,-0.05332 c -0.0032,-0.0064 -0.0053,-0.0144 -0.0053,-0.02293 0,-0.02186 0.01386,-0.03999 0.03306,-0.04746 h 5.33e-4 c 0.486319,-0.187702 0.897451,-0.387668 1.288852,-0.616963 l -0.04106,0.0224 c 0.01546,-0.0091 0.0256,-0.0256 0.0256,-0.04426 0,-0.01653 -0.008,-0.03146 -0.02026,-0.04053 v 0 c -0.08372,-0.06292 -0.167972,-0.127978 -0.247959,-0.1941 -0.0085,-0.0069 -0.01973,-0.0112 -0.03146,-0.0112 -0.0075,0 -0.0144,0.0016 -0.02026,0.0043 h 5.34e-4 c -1.17745,0.565765 -2.5596198,0.896376 -4.0185767,0.896376 -1.4589568,0 -2.8416597,-0.330612 -4.0755874,-0.920913 l 0.057057,0.02453 c -0.0064,-0.0032 -0.013331,-0.0048 -0.02133,-0.0048 -0.011731,0 -0.02293,0.0043 -0.031461,0.0112 v 0 c -0.079987,0.06612 -0.1637061,0.132244 -0.248492,0.194634 -0.012265,0.0096 -0.020263,0.02453 -0.020263,0.04106 0,0.01866 0.010132,0.03466 0.024529,0.04373 v 0 c 0.3524746,0.210631 0.7636061,0.410065 1.1918014,0.574837 l 0.055991,0.0192 c 0.019197,0.0075 0.033061,0.02613 0.033061,0.04746 0,0.0085 -0.00213,0.01653 -0.00587,0.02346 v -5.34e-4 C 4.6984128,13.260208 4.4275246,13.694802 4.1278413,14.107 l 0.02133,-0.0304 c -0.00907,0.0128 -0.024529,0.02133 -0.04106,0.02133 -0.00533,0 -0.010665,-0.0011 -0.015464,-0.0021 h 5.333e-4 C 2.5654391,13.620112 1.2360607,12.932228 0.05865689,12.052374 l 0.03466089,0.02506 c -0.01173138,-0.0085 -0.0191968,-0.02186 -0.02079653,-0.03679 v 0 C 0.02612898,11.622578 0,11.137327 0,10.646209 0,7.7586896 0.91291451,5.0844686 2.4651891,2.8960333 l -0.027729,0.041593 c 0.00427,-0.00853 0.011731,-0.015464 0.020263,-0.019197 v 0 z"
     id="path1"
     style="stroke-width:0.533244" />
</svg>
