<?xml version="1.0" encoding="UTF-8" standalone="no"?>
<!-- Uploaded to: SVG Repo, www.svgrepo.com, Generator: SVG Repo Mixer Tools -->

<svg
   fill="#000000"
   width="800"
   height="800"
   viewBox="0 0 16 16"
   version="1.1"
   id="svg1"
   xmlns="http://www.w3.org/2000/svg"
   xmlns:svg="http://www.w3.org/2000/svg">
  <defs
     id="defs1" />
  <path
     d="M 15.921648,5.9648307 C 15.405668,3.2409386 12.681776,2.902452 12.681776,2.902452 H 0.48225919 c -0.40398399,0 -0.45348203,0.531479 -0.45348203,0.531479 0,0 -0.05449784,4.8833065 -0.01349947,7.883188 0.10999565,1.613936 1.72393171,1.780429 1.72393171,1.780429 0,0 5.5102818,-0.0155 7.9761842,-0.0335 1.6254354,-0.283987 1.7894294,-1.711431 1.7704304,-2.4899 2.903885,0.161494 4.947804,-1.8879251 4.435324,-4.6093173 z M 8.5464399,8.3062379 C 7.7159728,9.2721997 5.8725458,10.954633 5.8725458,10.954633 c 0,0 -0.080497,0.0805 -0.2084918,0.0155 -0.049498,-0.0365 -0.069997,-0.06 -0.069997,-0.06 C 5.2965686,10.616146 3.3486457,8.8787153 2.9036633,8.2747392 2.432182,7.6312647 2.2111907,6.4753105 2.8441656,5.8008372 3.4766406,5.1288638 4.8465863,5.0768659 5.7525505,6.0713265 c 0,0 1.0414588,-1.187453 2.3124084,-0.6404747 1.2679498,0.5474784 1.2214517,2.0079205 0.481481,2.8753861 z m 4.1148371,0.3179875 c -0.619975,0.077997 -1.121956,0.017999 -1.121956,0.017999 v -3.78635 h 1.179454 c 0,0 1.315448,0.3674855 1.315448,1.7579304 0,1.2759494 -0.656474,1.7784295 -1.372446,2.0104204 z"
     id="path1"
     style="stroke-width:0.49998" />
</svg>
