<?xml version="1.0" encoding="UTF-8" standalone="no"?>
<!-- Uploaded to: SVG Repo, www.svgrepo.com, Generator: SVG Repo Mixer Tools -->

<svg
   fill="#000000"
   width="800"
   height="800"
   viewBox="0 0 16 16"
   version="1.1"
   id="svg1"
   xmlns="http://www.w3.org/2000/svg"
   xmlns:svg="http://www.w3.org/2000/svg">
  <defs
     id="defs1" />
  <path
     d="m 14.054544,2.4061821 c 0,0 -1.930909,-0.2429091 -6.0778174,-0.2429091 -4.0123632,0 -6.0319994,0.2429091 -6.0319994,0.2429091 A 1.9454544,1.9454544 0 0 0 2.3778175e-8,4.3516365 V 11.649091 A 1.9454544,1.9454544 0 0 0 1.9447272,13.595272 c 0,0 1.877818,0.241455 6.0319994,0.241455 4.1519994,0 6.0778174,-0.241455 6.0778174,-0.241455 a 1.9439999,1.9439999 0 0 0 1.945455,-1.946181 V 4.3501819 A 1.9439999,1.9439999 0 0 0 14.054544,2.4061821 Z M 5.8625451,10.890545 V 5.1123637 l 5.1883629,2.8872725 z"
     id="path1"
     style="stroke-width:0.727273" />
</svg>
